# xmcd
#
# Track frame offsets:
#	150
#	17972
#	31117
#	43810
#	55480
#	68217
#	78085
#	92910
#	104980
#	122310
#	132437
#	147017
#
# Disc length: 2213 seconds
#
# Revision: 2
# Processed by: cddbd v1.4b41PL1 Copyright (c) Steve Scherf et al.
# Submitted via: EZCDDA 0.1
#
DISCID=a608a30c
DTITLE=A.J. Croce - That's Me In The Bar
DYEAR=1900
DGENRE=
TTITLE0=That's Me In The Bar
TTITLE1=Sign On The Line
TTITLE2=She's Waiting For Me
TTITLE3=Checkin' In
TTITLE4=Music Box
TTITLE5=Callin'Home
TTITLE6=Night Out On The Town
TTITLE7=Pass Me By
TTITLE8=I Meant What I Said
TTITLE9=Maybe I'm To Blame
TTITLE10=I Confess
TTITLE11=Some People Call It Love
EXTD=
EXTT0=
EXTT1=
EXTT2=
EXTT3=
EXTT4=
EXTT5=
EXTT6=
EXTT7=
EXTT8=
EXTT9=
EXTT10=
EXTT11=
PLAYORDER=
